<svg width="40" height="40" viewBox="0 0 40 40" fill="none" xmlns="http://www.w3.org/2000/svg">
<path d="M36.6666 19.9486C36.6666 29.1297 29.2047 36.5725 19.9999 36.5725M36.6666 19.9486C36.6666 10.7675 29.2047 3.32471 19.9999 3.32471M36.6666 19.9486C36.6666 17.1943 29.2047 14.9614 19.9999 14.9614C10.7952 14.9614 3.33325 17.1943 3.33325 19.9486M36.6666 19.9486C36.6666 22.7029 29.2047 24.9358 19.9999 24.9358C10.7952 24.9358 3.33325 22.7029 3.33325 19.9486M19.9999 36.5725C10.7952 36.5725 3.33325 29.1297 3.33325 19.9486M19.9999 36.5725C23.6818 36.5725 26.6666 29.1297 26.6666 19.9486C26.6666 10.7675 23.6818 3.32471 19.9999 3.32471M19.9999 36.5725C16.318 36.5725 13.3333 29.1297 13.3333 19.9486C13.3333 10.7675 16.318 3.32471 19.9999 3.32471M3.33325 19.9486C3.33325 10.7675 10.7952 3.32471 19.9999 3.32471" stroke="#2D49B1" stroke-width="1.5"/>
</svg>
